<svg xmlns="http://www.w3.org/2000/svg" width="139" height="40" fill="none">
  <path fill="#000" fill-rule="evenodd" d="M134.503 0H4.495C2.0137 0 0 2.0103 0 4.4897v30.9831c0 2.4785 2.0129 4.4897 4.4958 4.4897H134.504c2.483 0 4.496-2.0112 4.496-4.4897V4.4897C139 2.0103 136.988 0 134.503 0Z" clip-rule="evenodd"/>
  <path fill="url(#a)" fill-rule="evenodd" d="m29.5787 27.0483 4.3985-2.4499c1.2249-.6811 1.2249-1.7957.0017-2.4803l-4.4428-2.4803-3.6748 3.7834 3.7183 3.6262-.0009.0009Z" clip-rule="evenodd"/>
  <path fill="url(#b)" fill-rule="evenodd" d="M25.863 23.4203s-8.8499 9.0089-11.5144 11.676c.2155.0434.4579.0278.7168-.046l3.2291-1.7219 11.2112-6.2428.0713-.04-3.7166-3.6262.0026.0009Z" clip-rule="evenodd"/>
  <path fill="url(#c)" fill-rule="evenodd" d="M14.2287 11.6375c-.53.1737-.8801.7123-.8801 1.5394v20.3374c0 .8801.4101 1.4474 1.0008 1.5811L25.863 23.4212 14.2278 11.6375h.0009Z" clip-rule="evenodd"/>
  <path fill="url(#d)" fill-rule="evenodd" d="M15.5751 11.8474c-.4674-.2607-.8983-.3302-1.258-.2468-.0321.0087-.0582.0261-.0886.0348L25.8611 23.42l3.6765-3.7843-13.9625-7.7883Z" clip-rule="evenodd"/>
  <path fill="#fff" fill-rule="evenodd" d="M80.746 27.1972c.4013-.4083.4343-.9782.4343-1.2979 0-1.2805-.7488-3.2717-2.1953-3.2717-.4535 0-.9408.2328-1.2206.5881-.2954.3719-.384.8514-.384 1.3145 0 1.1902.682 3.1648 2.1806 3.1648.437.0018.9061-.212 1.1858-.4969l-.0008-.0009Zm27.431-8.6267.914.0131c-.026 3.9354-.037 7.8708-.018 11.8063-.298.0035-.596.0069-.895.0087-.006-3.9424-.003-7.8839-.001-11.8272v-.0009Zm-6.134 3.2405c1.312-.4587 2.876-.0782 3.803.9817.789.8983 1.088 2.1388 1.075 3.3221.008 1.2423-.326 2.5663-1.22 3.4611-.952 1.0008-2.507 1.2874-3.772.8062-.697-.2589-1.277-.7671-1.727-1.3579.027 1.549.018 3.0962.007 4.6443-.3045-.006-.6059-.013-.9074-.0173.0174-3.9407-.0087-7.8796.0113-11.8185l.8981.0139c.009.4378.009.874-.005 1.3118.48-.6064 1.102-1.112 1.839-1.3466l-.002-.0008Zm.308.7254c-.855.2484-1.616.847-2.094 1.6072-.102 1.0286-.008 2.078-.046 3.1153.023.3214-.075.7037.151.973.443.6021 1.043 1.092 1.727 1.3761.977.4014 2.165.1303 2.889-.6429.754-.7862.999-1.9373.976-3.0032-.026-1.0373-.329-2.1493-1.131-2.8426-.652-.6133-1.625-.8079-2.471-.5838l-.001.0009Zm10.525-.7558c1.138-.2798 2.426-.2363 3.445.4013.7.4257 1.121 1.2423 1.121 2.0651.017 1.5342-.007 3.0684.009 4.6026.001.5125.106 1.019.219 1.5177-.347.0026-.691.0026-1.037-.0017-.085-.4605-.154-.9261-.182-1.3926-.698.8739-1.736 1.5081-2.858 1.5515-.834.0435-1.764-.0677-2.396-.6819-.625-.5908-.816-1.5464-.628-2.3717.231-.8392.984-1.39 1.752-1.6715 1.325-.5039 2.76-.2606 4.139-.3301-.021-.7767.148-1.6784-.408-2.3126-.647-.7472-1.733-.8193-2.638-.6742-.814.1164-1.582.7324-1.662 1.6072-.304 0-.608.0026-.913.007-.063-1.1946 1.008-2.0329 2.033-2.317l.004.0009Zm-1.114 5.4774c-.459.6038-.32 1.5551.268 2.0225.608.5178 1.463.4543 2.198.3475.934-.2233 1.893-.8184 2.22-1.7879.044-.5491 0-1.0998.011-1.6506-.819.0026-1.637-.0191-2.454.0087-.839.0391-1.718.3622-2.243 1.0598Zm6.672-5.4331c.332.0087.663.0139.995.0191 1.006 2.4933 2.05 4.9718 3.055 7.4643 1.077-2.4673 2.026-4.9919 3.076-7.473.332.0043.666.0052 1.001.0069-1.377 3.356-2.806 6.6894-4.19 10.0428-.259.6403-.562 1.3266-1.179 1.6871-.61.3936-1.365.2989-2.044.205.052-.284.104-.5646.158-.847.551.1668 1.26.2328 1.654-.2919.476-.6533.704-1.4534 1.043-2.184-1.202-2.8721-2.409-5.7407-3.571-8.6285l.002-.0008Zm-38.1945 8.75c-.139-.0174-.2259-.0174-.3996-.0174-.1581 0-1.0999.0365-1.8331.2867-.3823.1408-1.4977.5647-1.4977 1.8296 0 1.2632 1.2015 2.1684 3.0684 2.1684 1.6723 0 2.5611-.8166 2.5611-1.9199 0-.9079-.5734-1.3874-1.9-2.3474h.0009Zm1.2388-7.8934c.3997.3388 1.2354 1.0485 1.2354 2.3994 0 1.3153-.7324 1.9391-1.4647 2.5255-.2259.2294-.4865.4796-.4865.8705s.2606.6038.4517.7645l.629.4952c.7662.6602 1.463 1.2649 1.463 2.4916 0 1.6706-1.5855 3.3594-4.5844 3.3594-2.5281 0-3.7478-1.2267-3.7478-2.5411 0-.6411.3127-1.5481 1.3422-2.1693 1.0799-.6776 2.5454-.7644 3.3291-.8192-.2433-.3214-.523-.6576-.523-1.2075 0-.3024.0868-.4805.1737-.695-.1911.0191-.3822.0364-.556.0364-1.8487 0-2.8947-1.4047-2.8947-2.7913 0-.8166.3667-1.7244 1.1155-2.3803.9939-.8358 2.1788-.9774 3.1214-.9774h3.5906l-1.1172.6394h-1.0773v-.0008Zm-8.8004 6.1724c.417-.5699.523-1.277.523-1.9703 0-1.5637-.7324-4.5453-2.8895-4.5453-.5751 0-1.1493.2311-1.5672.6047-.6794.6211-.801 1.4021-.801 2.1657 0 1.7575.8514 4.6513 2.959 4.6513.6776 0 1.3752-.3388 1.7748-.9052l.0009-.0009Zm-2.1754 1.4378c-2.7678 0-4.2464-2.2023-4.2464-4.1908 0-2.3248 1.8617-4.3125 4.5088-4.3125 2.5567 0 4.1587 2.0416 4.1587 4.19 0 2.0937-1.5837 4.3133-4.4219 4.3133h.0008Zm-7.2575-1.4378c.4187-.5699.523-1.277.523-1.9703 0-1.5637-.7298-4.5453-2.8886-4.5453-.5734 0-1.1502.2311-1.5681.6047-.6794.6211-.7993 1.4021-.7993 2.1657 0 1.7575.8514 4.6513 2.959 4.6513.6776 0 1.3752-.3388 1.774-.9052v-.0009Zm-2.1745 1.4378c-2.7687 0-4.2482-2.2023-4.2482-4.1908 0-2.3248 1.8635-4.3125 4.5088-4.3125 2.5594 0 4.1596 2.0416 4.1596 4.19 0 2.0937-1.5828 4.3133-4.4202 4.3133Zm-5.5774-.278-2.502.589c-1.0164.1599-1.9251.3024-2.8877.3024-4.8302 0-6.6659-3.621-6.6659-6.4609 0-3.4611 2.6063-6.6738 7.069-6.6738.947 0 1.8548.1425 2.6758.3736 1.3144.3753 1.926.8392 2.3108 1.1076l-1.4534 1.4091-.6116.1434.4379-.715c-.5951-.5881-1.6802-1.6767-3.7443-1.6767-2.7661 0-4.8477 2.1424-4.8477 5.2647 0 3.3533 2.3787 6.513 6.1942 6.513 1.1207 0 1.6967-.2311 2.224-.4457v-2.8721l-2.6427.1416 1.3987-.7671h3.7095l-.4543.4457c-.1242.1068-.139.1442-.1764.2867-.0173.1607-.0347.6776-.0347.8557v2.1788h.0008Zm31.5166-.516c-.5778-.0521-.6994-.1599-.6994-.8557V18.5419l.0087-.1147c.0695-.6255.245-.7298.7871-1.0529h-2.502l-1.3118.6428h1.3378v.0087l-.0017-.0061v11.0158c0 .3562-.0695.4101-.4726.9443h3.098l.6472-.3909c-.2954-.0365-.5934-.0539-.8905-.0904l-.0008-.0008Zm5.487-5.117c.3301-.1242.5039-.2293.5039-.4778 0-.708-.7819-1.5255-1.7202-1.5255-.695 0-1.9981.5508-1.9981 2.4646 0 .3015.0348.6203.0521.9383l3.1623-1.4004v.0008Zm1.6332 5.282c-.1894.1069-.3805.2311-.5716.3197-.5734.265-1.1659.3354-1.6854.3354-.556 0-1.4247-.0348-2.3109-.6907-1.2336-.8861-1.7722-2.4099-1.7722-3.7391 0-2.7452 2.1892-4.0935 3.9789-4.0935.6255 0 1.2683.1607 1.7896.4969.8687.5838 1.0946 1.3466 1.2162 1.7549l-4.0831 1.6836-1.3396.1043c.4344 2.2526 1.9286 3.5618 3.581 3.5618.8861 0 1.529-.3171 2.1197-.6185l-.9208.8861-.0018-.0009ZM44.2817 6.7204c.3927-.2606.8887-.443 1.5203-.443 1.0008 0 1.6923.5299 1.6923 1.4369 0 .7228-.5212 1.2805-1.1875 1.4377v.0192c.8027.0868 1.4013.6254 1.4099 1.4725 0 1.2197-1.0425 1.7079-2.0936 1.7079-.5213 0-1.0599-.1129-1.503-.3822l.1955-.5934c.318.1825.8218.3562 1.2996.3562.8462 0 1.3162-.4691 1.3162-1.1146 0-.8809-.8279-1.1328-1.5638-1.1328h-.3405v-.576h.3327c.7619 0 1.3596-.4778 1.3596-1.0799 0-.6011-.4187-.9321-1.0338-.9321-.4448 0-.8887.1824-1.205.3822l-.1963-.5577-.0026-.0009Zm5.5696 3.687-.5995 1.8469h-.768l1.9634-5.8727h.8896l1.966 5.8727h-.7949l-.6151-1.8469h-2.0415Zm1.8964-.5925-.5733-1.6906c-.1277-.3822-.2129-.7315-.298-1.0712h-.0174c-.0869.3388-.1711.7055-.2902 1.0625l-.5646 1.6993H51.7477Zm5.6721-3.435v.6368h-2.3152v5.2359h-.7532V6.3799h3.0684Zm.8531.0712c.3588-.0608.8279-.113 1.4265-.113.7341 0 1.2719.1738 1.6142.4883.3075.278.5038.7054.5038 1.2284 0 .5317-.1537.9504-.4448 1.2553-.4013.4257-1.0338.6447-1.7601.6447-.2224 0-.4274-.0087-.5994-.0522v2.3526h-.7419V6.452l.0017-.001Zm.7428 2.8321c.1625.0435.3675.0608.6151.0608.8974 0 1.4447-.4535 1.4447-1.2466 0-.7845-.5473-1.159-1.3587-1.159-.3258 0-.5734.0261-.7011.0609V9.284v-.0009ZM63.1405 6.38l1.145 2.5193c.1451.3475.2824.688.4101 1.0286h.0261c.1016-.2953.2128-.6359.3501-1.0546l.9061-2.4916h.7862l-1.2119 3.032c-.3076.7844-.6672 1.6827-1.0773 2.2222-.3674.4795-.7862.7237-1.2987.7237-.1964 0-.325-.0174-.4188-.0522l.0695-.6185c.0669.0174.1529.026.2806.026.5908 0 .9409-.5837 1.1294-1.0016.0591-.1303.0434-.2172-.0261-.3579l-1.9156-3.9754h.8453Zm4.3221.3405c.3926-.2606.8878-.443 1.5203-.443 1.0008 0 1.6914.5299 1.6914 1.4369 0 .7228-.5212 1.2805-1.1875 1.4377v.0192c.8035.0868 1.4012.6254 1.4108 1.4725 0 1.2197-1.0425 1.7079-2.0937 1.7079-.5212 0-1.0599-.1129-1.5047-.3822l.1964-.5934c.3162.1825.8201.3562 1.2988.3562.8453 0 1.3144-.4691 1.3144-1.1146 0-.8809-.8279-1.1328-1.5638-1.1328h-.3414v-.576h.3336c.761 0 1.3579-.4778 1.3579-1.0799 0-.6011-.417-.9321-1.0339-.9321-.443 0-.8887.1824-1.204.3822l-.1955-.5577.0009-.0009ZM72.801 6.38v2.4759c0 .9235-.0173 1.6993-.0677 2.4829l.026.0087c.2815-.6108.6403-1.2458 1.0582-1.9434l1.8634-3.0233h.7428v5.8728h-.7002V9.7541c0-.9504.0087-1.6472.0695-2.3873l-.0261-.0087c-.2823.6428-.6758 1.324-1.0685 1.9694l-1.8027 2.9277h-.7958V6.3799H72.801Zm6.2264.6463h-1.7523V6.38h4.2638v.6463h-1.7601v5.2264h-.7514V7.0262Zm6.3384 2.475h-2.2292v2.1172h2.495v.6359h-3.2491V6.3816h3.1188v.636h-2.3656v1.8556h2.2292v.628h.0009ZM89.9675 6.38v2.4585h2.7861V6.38h.7515v5.8727h-.7515V9.5004h-2.7852v2.7539h-.7515V6.3799h.7524-.0018Zm5.9709 4.0275-.5994 1.8469h-.768l1.9652-5.8727h.8878l1.966 5.8727h-.7949l-.6151-1.8469h-2.0416Zm1.8974-.5925-.5734-1.6906c-.1277-.3822-.2137-.7315-.2988-1.0712h-.0174c-.0851.3388-.1703.7055-.2902 1.0625l-.5646 1.6993h1.7444Z" clip-rule="evenodd"/>
  <defs>
    <linearGradient id="a" x1="27.3114" x2="35.3264" y1="24.1383" y2="19.9179" gradientUnits="userSpaceOnUse">
      <stop stop-color="#FFA28B"/>
      <stop offset="1" stop-color="#FFC473"/>
    </linearGradient>
    <linearGradient id="b" x1="14.6004" x2="28.0016" y1="31.3116" y2="23.271" gradientUnits="userSpaceOnUse">
      <stop stop-color="#7D17FF"/>
      <stop offset="1" stop-color="#FF2E64"/>
    </linearGradient>
    <linearGradient id="c" x1="12.8259" x2="34.604" y1="5.9034" y2="26.6943" gradientUnits="userSpaceOnUse">
      <stop stop-color="#0053B9"/>
      <stop offset="1" stop-color="#2EFFBC"/>
    </linearGradient>
    <linearGradient id="d" x1="13.8695" x2="24.938" y1="11.1794" y2="24.9961" gradientUnits="userSpaceOnUse">
      <stop stop-color="#00D4AB"/>
      <stop offset="1" stop-color="#C8FFA2"/>
    </linearGradient>
  </defs>
</svg>
