<svg width="139" height="40" viewBox="0 0 139 40" fill="none" xmlns="http://www.w3.org/2000/svg">
<path fill-rule="evenodd" clip-rule="evenodd" d="M134.503 0H4.49491C2.01376 0 0 2.01029 0 4.4897V35.4728C0 37.9513 2.01289 39.9625 4.49578 39.9625H134.504C136.987 39.9625 139 37.9513 139 35.4728V4.4897C139 2.01029 136.988 0 134.503 0Z" fill="black"/>
<path fill-rule="evenodd" clip-rule="evenodd" d="M29.5787 27.0483L33.9772 24.5984C35.2021 23.9173 35.2021 22.8027 33.9789 22.1181L29.5361 19.6378L25.8613 23.4212L29.5796 27.0474L29.5787 27.0483Z" fill="url(#paint0_linear_3573_3339)"/>
<path fill-rule="evenodd" clip-rule="evenodd" d="M25.863 23.4203C25.863 23.4203 17.0131 32.4292 14.3486 35.0963C14.5641 35.1397 14.8065 35.1241 15.0654 35.0503L18.2945 33.3284L29.5057 27.0856L29.577 27.0456L25.8604 23.4194L25.863 23.4203Z" fill="url(#paint1_linear_3573_3339)"/>
<path fill-rule="evenodd" clip-rule="evenodd" d="M14.2287 11.6375C13.6987 11.8112 13.3486 12.3498 13.3486 13.1769V33.5143C13.3486 34.3944 13.7587 34.9617 14.3494 35.0954L25.863 23.4212L14.2278 11.6375H14.2287Z" fill="url(#paint2_linear_3573_3339)"/>
<path fill-rule="evenodd" clip-rule="evenodd" d="M15.5751 11.8474C15.1077 11.5867 14.6768 11.5172 14.3171 11.6006C14.285 11.6093 14.2589 11.6267 14.2285 11.6354L25.8611 23.42L29.5376 19.6357L15.5751 11.8474Z" fill="url(#paint3_linear_3573_3339)"/>
<path fill-rule="evenodd" clip-rule="evenodd" d="M80.746 27.1972C81.1473 26.7889 81.1803 26.219 81.1803 25.8993C81.1803 24.6188 80.4315 22.6276 78.985 22.6276C78.5315 22.6276 78.0442 22.8604 77.7644 23.2157C77.469 23.5876 77.3804 24.0671 77.3804 24.5302C77.3804 25.7204 78.0624 27.695 79.561 27.695C79.998 27.6968 80.4671 27.483 80.7468 27.1981L80.746 27.1972ZM108.177 18.5705L109.091 18.5836C109.065 22.519 109.054 26.4544 109.073 30.3899C108.775 30.3934 108.477 30.3968 108.178 30.3986C108.172 26.4562 108.175 22.5147 108.177 18.5714V18.5705ZM102.043 21.811C103.355 21.3523 104.919 21.7328 105.846 22.7927C106.635 23.691 106.934 24.9315 106.921 26.1148C106.929 27.3571 106.595 28.6811 105.701 29.5759C104.749 30.5767 103.194 30.8633 101.929 30.3821C101.232 30.1232 100.652 29.615 100.202 29.0242C100.229 30.5732 100.22 32.1204 100.209 33.6685C99.9045 33.6625 99.6031 33.6555 99.3016 33.6512C99.319 29.7105 99.2929 25.7716 99.3129 21.8327L100.211 21.8466C100.22 22.2844 100.22 22.7206 100.206 23.1584C100.686 22.552 101.308 22.0464 102.045 21.8118L102.043 21.811ZM102.351 22.5364C101.496 22.7848 100.735 23.3834 100.257 24.1436C100.155 25.1722 100.249 26.2216 100.211 27.2589C100.234 27.5803 100.136 27.9626 100.362 28.2319C100.805 28.834 101.405 29.3239 102.089 29.608C103.066 30.0094 104.254 29.7383 104.978 28.9651C105.732 28.1789 105.977 27.0278 105.954 25.9619C105.928 24.9246 105.625 23.8126 104.823 23.1193C104.171 22.506 103.198 22.3114 102.352 22.5355L102.351 22.5364ZM112.876 21.7806C114.014 21.5008 115.302 21.5443 116.321 22.1819C117.021 22.6076 117.442 23.4242 117.442 24.247C117.459 25.7812 117.435 27.3154 117.451 28.8496C117.452 29.3621 117.557 29.8686 117.67 30.3673C117.323 30.3699 116.979 30.3699 116.633 30.3656C116.548 29.9051 116.479 29.4395 116.451 28.973C115.753 29.8469 114.715 30.4811 113.593 30.5245C112.759 30.568 111.829 30.4568 111.197 29.8426C110.572 29.2518 110.381 28.2962 110.569 27.4709C110.8 26.6317 111.553 26.0809 112.321 25.7994C113.646 25.2955 115.081 25.5388 116.46 25.4693C116.439 24.6926 116.608 23.7909 116.052 23.1567C115.405 22.4095 114.319 22.3374 113.414 22.4825C112.6 22.5989 111.832 23.2149 111.752 24.0897C111.448 24.0897 111.144 24.0923 110.839 24.0967C110.776 22.9021 111.847 22.0638 112.872 21.7797L112.876 21.7806ZM111.762 27.258C111.303 27.8618 111.442 28.8131 112.03 29.2805C112.638 29.7983 113.493 29.7348 114.228 29.628C115.162 29.4047 116.121 28.8096 116.448 27.8401C116.492 27.291 116.448 26.7403 116.459 26.1895C115.64 26.1921 114.822 26.1704 114.005 26.1982C113.166 26.2373 112.287 26.5604 111.762 27.258ZM118.434 21.8249C118.766 21.8336 119.097 21.8388 119.429 21.844C120.435 24.3373 121.479 26.8158 122.484 29.3083C123.561 26.841 124.51 24.3164 125.56 21.8353C125.892 21.8396 126.226 21.8405 126.561 21.8422C125.184 25.1982 123.755 28.5316 122.371 31.885C122.112 32.5253 121.809 33.2116 121.192 33.5721C120.582 33.9657 119.827 33.871 119.148 33.7771C119.2 33.4931 119.252 33.2125 119.306 32.9301C119.857 33.0969 120.566 33.1629 120.96 32.6382C121.436 31.9849 121.664 31.1848 122.003 30.4542C120.801 27.5821 119.594 24.7135 118.432 21.8257L118.434 21.8249ZM80.2395 30.5749C80.1005 30.5575 80.0136 30.5575 79.8399 30.5575C79.6818 30.5575 78.74 30.594 78.0068 30.8442C77.6245 30.985 76.5091 31.4089 76.5091 32.6738C76.5091 33.937 77.7106 34.8422 79.5775 34.8422C81.2498 34.8422 82.1386 34.0256 82.1386 32.9223C82.1386 32.0144 81.5652 31.5349 80.2386 30.5749H80.2395ZM81.4783 22.6815C81.878 23.0203 82.7137 23.73 82.7137 25.0809C82.7137 26.3962 81.9813 27.02 81.249 27.6064C81.0231 27.8358 80.7625 28.086 80.7625 28.4769C80.7625 28.8678 81.0231 29.0807 81.2142 29.2414L81.8432 29.7366C82.6094 30.3968 83.3062 31.0015 83.3062 32.2282C83.3062 33.8988 81.7207 35.5876 78.7218 35.5876C76.1937 35.5876 74.974 34.3609 74.974 33.0465C74.974 32.4054 75.2867 31.4984 76.3162 30.8772C77.3961 30.1996 78.8616 30.1128 79.6453 30.058C79.402 29.7366 79.1223 29.4004 79.1223 28.8505C79.1223 28.5481 79.2091 28.37 79.296 28.1555C79.1049 28.1746 78.9138 28.1919 78.74 28.1919C76.8913 28.1919 75.8453 26.7872 75.8453 25.4006C75.8453 24.584 76.212 23.6762 76.9608 23.0203C77.9547 22.1845 79.1396 22.0429 80.0822 22.0429H83.6728L82.5556 22.6823H81.4783V22.6815ZM72.6779 28.8539C73.0949 28.284 73.2009 27.5769 73.2009 26.8836C73.2009 25.3199 72.4685 22.3383 70.3114 22.3383C69.7363 22.3383 69.1621 22.5694 68.7442 22.943C68.0648 23.5641 67.9432 24.3451 67.9432 25.1087C67.9432 26.8662 68.7946 29.76 70.9022 29.76C71.5798 29.76 72.2774 29.4212 72.677 28.8548L72.6779 28.8539ZM70.5025 30.2917C67.7347 30.2917 66.2561 28.0894 66.2561 26.1009C66.2561 23.7761 68.1178 21.7884 70.7649 21.7884C73.3216 21.7884 74.9236 23.83 74.9236 25.9784C74.9236 28.0721 73.3399 30.2917 70.5017 30.2917H70.5025ZM63.245 28.8539C63.6637 28.284 63.768 27.5769 63.768 26.8836C63.768 25.3199 63.0382 22.3383 60.8794 22.3383C60.306 22.3383 59.7292 22.5694 59.3113 22.943C58.6319 23.5641 58.512 24.3451 58.512 25.1087C58.512 26.8662 59.3634 29.76 61.471 29.76C62.1486 29.76 62.8462 29.4212 63.245 28.8548V28.8539ZM61.0705 30.2917C58.3018 30.2917 56.8223 28.0894 56.8223 26.1009C56.8223 23.7761 58.6858 21.7884 61.3311 21.7884C63.8905 21.7884 65.4907 23.83 65.4907 25.9784C65.4907 28.0721 63.9079 30.2917 61.0705 30.2917ZM55.4931 30.0137L52.9911 30.6027C51.9747 30.7626 51.066 30.9051 50.1034 30.9051C45.2732 30.9051 43.4375 27.2841 43.4375 24.4442C43.4375 20.9831 46.0438 17.7704 50.5065 17.7704C51.4535 17.7704 52.3613 17.9129 53.1823 18.144C54.4967 18.5193 55.1083 18.9832 55.4931 19.2516L54.0397 20.6607L53.4281 20.8041L53.866 20.0891C53.2709 19.501 52.1858 18.4124 50.1217 18.4124C47.3556 18.4124 45.274 20.5548 45.274 23.6771C45.274 27.0304 47.6527 30.1901 51.4682 30.1901C52.5889 30.1901 53.1649 29.959 53.6922 29.7444V26.8723L51.0495 27.0139L52.4482 26.2468H56.1577L55.7034 26.6925C55.5792 26.7993 55.5644 26.8367 55.527 26.9792C55.5097 27.1399 55.4923 27.6568 55.4923 27.8349V30.0137H55.4931ZM87.0097 29.4977C86.4319 29.4456 86.3103 29.3378 86.3103 28.642V18.5419L86.319 18.4272C86.3885 17.8017 86.564 17.6974 87.1061 17.3743H84.6041L83.2923 18.0171H84.6301V18.0258L84.6284 18.0197V29.0355C84.6284 29.3917 84.5589 29.4456 84.1558 29.9798H87.2538L87.901 29.5889C87.6056 29.5524 87.3076 29.535 87.0105 29.4985L87.0097 29.4977ZM92.4967 24.3807C92.8268 24.2565 93.0006 24.1514 93.0006 23.9029C93.0006 23.1949 92.2187 22.3774 91.2804 22.3774C90.5854 22.3774 89.2823 22.9282 89.2823 24.842C89.2823 25.1435 89.3171 25.4623 89.3344 25.7803L92.4967 24.3799V24.3807ZM94.1299 29.6627C93.9405 29.7696 93.7494 29.8938 93.5583 29.9824C92.9849 30.2474 92.3924 30.3178 91.8729 30.3178C91.3169 30.3178 90.4482 30.283 89.562 29.6271C88.3284 28.741 87.7898 27.2172 87.7898 25.888C87.7898 23.1428 89.979 21.7945 91.7687 21.7945C92.3942 21.7945 93.037 21.9552 93.5583 22.2914C94.427 22.8752 94.6529 23.638 94.7745 24.0463L90.6914 25.7299L89.3518 25.8342C89.7862 28.0868 91.2804 29.396 92.9328 29.396C93.8189 29.396 94.4618 29.0789 95.0525 28.7775L94.1317 29.6636L94.1299 29.6627Z" fill="white"/>
<path fill-rule="evenodd" clip-rule="evenodd" d="M44.2817 6.72041C44.6744 6.45978 45.1704 6.27734 45.802 6.27734C46.8028 6.27734 47.4943 6.80728 47.4943 7.71426C47.4943 8.43706 46.9731 8.99479 46.3068 9.15204V9.17115C47.1095 9.25803 47.7081 9.79665 47.7167 10.6437C47.7167 11.8634 46.6742 12.3516 45.6231 12.3516C45.1018 12.3516 44.5632 12.2387 44.1201 11.9694L44.3156 11.376C44.6336 11.5585 45.1374 11.7322 45.6152 11.7322C46.4614 11.7322 46.9314 11.2631 46.9314 10.6176C46.9314 9.73671 46.1035 9.48477 45.3676 9.48477H45.0271V8.90879H45.3598C46.1217 8.90879 46.7194 8.43098 46.7194 7.82893C46.7194 7.22776 46.3007 6.89676 45.6856 6.89676C45.2408 6.89676 44.7969 7.0792 44.4806 7.27901L44.2843 6.72127L44.2817 6.72041ZM49.8513 10.4074L49.2518 12.2543H48.4838L50.4472 6.38159H51.3368L53.3028 12.2543H52.5079L51.8928 10.4074H49.8513ZM51.7477 9.81489L51.1744 8.12431C51.0467 7.74206 50.9615 7.39282 50.8764 7.05314H50.859C50.7721 7.39195 50.6879 7.75856 50.5688 8.11562L50.0042 9.81489H51.7469H51.7477ZM57.4198 6.37986V7.01665H55.1046V12.2526H54.3514V6.37986H57.4198ZM58.2729 6.45109C58.6317 6.39028 59.1008 6.33816 59.6994 6.33816C60.4335 6.33816 60.9713 6.51191 61.3136 6.82639C61.6211 7.10439 61.8174 7.53182 61.8174 8.05481C61.8174 8.58648 61.6637 9.00522 61.3726 9.31015C60.9713 9.73584 60.3388 9.95476 59.6125 9.95476C59.3901 9.95476 59.1851 9.94608 59.0131 9.90264V12.2552H58.2712V6.45196L58.2729 6.45109ZM59.0157 9.28322C59.1782 9.32666 59.3832 9.34403 59.6308 9.34403C60.5282 9.34403 61.0755 8.89054 61.0755 8.09738C61.0755 7.31289 60.5282 6.93846 59.7168 6.93846C59.391 6.93846 59.1434 6.96453 59.0157 6.99928V9.28409V9.28322ZM63.1405 6.37986L64.2855 8.89923C64.4306 9.24673 64.5679 9.58728 64.6956 9.92783H64.7217C64.8233 9.63246 64.9345 9.29191 65.0718 8.87317L65.9779 6.38159H66.7641L65.5522 9.41353C65.2446 10.198 64.885 11.0963 64.4749 11.6358C64.1075 12.1153 63.6887 12.3595 63.1762 12.3595C62.9798 12.3595 62.8512 12.3421 62.7574 12.3073L62.8269 11.6888C62.8938 11.7062 62.9798 11.7148 63.1075 11.7148C63.6983 11.7148 64.0484 11.1311 64.2369 10.7132C64.296 10.5829 64.2803 10.496 64.2108 10.3553L62.2952 6.37986H63.1405ZM67.4626 6.72041C67.8552 6.45978 68.3504 6.27734 68.9829 6.27734C69.9837 6.27734 70.6743 6.80728 70.6743 7.71426C70.6743 8.43706 70.1531 8.99479 69.4868 9.15204V9.17115C70.2903 9.25803 70.888 9.79665 70.8976 10.6437C70.8976 11.8634 69.8551 12.3516 68.8039 12.3516C68.2827 12.3516 67.744 12.2387 67.2992 11.9694L67.4956 11.376C67.8118 11.5585 68.3157 11.7322 68.7944 11.7322C69.6397 11.7322 70.1088 11.2631 70.1088 10.6176C70.1088 9.73671 69.2809 9.48477 68.545 9.48477H68.2036V8.90879H68.5372C69.2982 8.90879 69.8951 8.43098 69.8951 7.82893C69.8951 7.22776 69.4781 6.89676 68.8612 6.89676C68.4182 6.89676 67.9725 7.0792 67.6572 7.27901L67.4617 6.72127L67.4626 6.72041ZM72.801 6.37986V8.85579C72.801 9.77927 72.7837 10.5551 72.7333 11.3387L72.7593 11.3474C73.0408 10.7366 73.3996 10.1016 73.8175 9.40398L75.6809 6.38072H76.4237V12.2535H75.7235V9.75408C75.7235 8.80367 75.7322 8.10693 75.793 7.36676L75.7669 7.35807C75.4846 8.00094 75.0911 8.68204 74.6984 9.32752L72.8957 12.2552H72.0999V6.37986H72.8002H72.801ZM79.0274 7.02621H77.2751V6.37986H81.5389V7.02621H79.7788V12.2526H79.0274V7.02707V7.02621ZM85.3658 9.50127H83.1366V11.6184H85.6316V12.2543H82.3825V6.38159H85.5013V7.01752H83.1357V8.87317H85.3649V9.50127H85.3658ZM89.9675 6.37986V8.83842H92.7536V6.37986H93.5051V12.2526H92.7536V9.50041H89.9684V12.2543H89.2169V6.37986H89.9693H89.9675ZM95.9384 10.4074L95.339 12.2543H94.571L96.5362 6.38159H97.424L99.39 12.2543H98.5951L97.98 10.4074H95.9384ZM97.8358 9.81489L97.2624 8.12431C97.1347 7.74206 97.0487 7.39282 96.9636 7.05314H96.9462C96.8611 7.39195 96.7759 7.75856 96.656 8.11562L96.0914 9.81489H97.8349H97.8358Z" fill="white"/>
<defs>
<linearGradient id="paint0_linear_3573_3339" x1="27.3114" y1="24.1383" x2="35.3264" y2="19.9179" gradientUnits="userSpaceOnUse">
<stop stop-color="#FFA28B"/>
<stop offset="1" stop-color="#FFC473"/>
</linearGradient>
<linearGradient id="paint1_linear_3573_3339" x1="14.6004" y1="31.3116" x2="28.0016" y2="23.271" gradientUnits="userSpaceOnUse">
<stop stop-color="#7D17FF"/>
<stop offset="1" stop-color="#FF2E64"/>
</linearGradient>
<linearGradient id="paint2_linear_3573_3339" x1="12.8259" y1="5.90338" x2="34.604" y2="26.6943" gradientUnits="userSpaceOnUse">
<stop stop-color="#0053B9"/>
<stop offset="1" stop-color="#2EFFBC"/>
</linearGradient>
<linearGradient id="paint3_linear_3573_3339" x1="13.8695" y1="11.1794" x2="24.938" y2="24.9961" gradientUnits="userSpaceOnUse">
<stop stop-color="#00D4AB"/>
<stop offset="1" stop-color="#C8FFA2"/>
</linearGradient>
</defs>
</svg>
