<svg width="36" height="36" viewBox="0 0 36 36" fill="none" xmlns="http://www.w3.org/2000/svg">
<path d="M22.6904 8.93164H13.2206C10.8509 8.93164 8.92285 10.8597 8.92285 13.2294V22.7861C8.92285 25.1558 10.8509 27.0839 13.2206 27.0839H22.6904C25.0601 27.0839 26.9882 25.1558 26.9882 22.7861V13.2294C26.9882 10.8597 25.0601 8.93164 22.6904 8.93164ZM17.9736 23.73C14.7614 23.73 12.1482 21.1446 12.1482 17.9667C12.1482 14.7888 14.7618 12.2033 17.9736 12.2033C21.1854 12.2033 23.799 14.7888 23.799 17.9667C23.799 21.1446 21.1858 23.73 17.9736 23.73ZM23.9027 13.3382C23.1456 13.3382 22.532 12.7246 22.532 11.9675C22.532 11.2105 23.1456 10.5969 23.9027 10.5969C24.6597 10.5969 25.2733 11.2105 25.2733 11.9675C25.2733 12.7246 24.6597 13.3382 23.9027 13.3382Z" fill="currentColor"/>
<path d="M18 0C8.05897 0 0 8.05897 0 18C0 27.941 8.05897 36 18 36C27.941 36 36 27.941 36 18C36 8.05897 27.941 0 18 0ZM29.1138 22.7865C29.1138 26.3287 26.232 29.2102 22.6902 29.2102H13.2204C9.67821 29.2102 6.79672 26.3284 6.79672 22.7865V13.2299C6.79672 9.6877 9.67858 6.80621 13.2204 6.80621H22.6902C26.2324 6.80621 29.1138 9.68807 29.1138 13.2299V22.7865Z" fill="currentColor"/>
<path d="M17.9735 14.3262C15.9312 14.3262 14.27 15.9596 14.27 17.9676C14.27 19.9756 15.9312 21.6091 17.9735 21.6091C20.0158 21.6091 21.6771 19.9756 21.6771 17.9676C21.6771 15.9596 20.0158 14.3262 17.9735 14.3262Z" fill="currentColor"/>
</svg>
