<svg width="36" height="36" viewBox="0 0 36 36" fill="none" xmlns="http://www.w3.org/2000/svg">
<path d="M18 0C8.05897 0 0 8.05897 0 18C0 27.941 8.05897 36 18 36C27.941 36 36 27.941 36 18C36 8.05897 27.941 0 18 0ZM25.8056 20.3792C25.9473 20.5544 26.2842 20.8957 26.8171 21.4038H26.8295L26.8419 21.4159L26.8544 21.4287L26.8795 21.4535C28.0535 22.5442 28.8485 23.4644 29.265 24.2138C29.2902 24.255 29.3172 24.3076 29.3464 24.37C29.3752 24.4324 29.4044 24.5427 29.4336 24.7007C29.4624 24.8595 29.4602 25.0004 29.4274 25.1252C29.3942 25.2497 29.2902 25.3651 29.1153 25.4687C28.9405 25.5731 28.6948 25.625 28.3783 25.625L25.1811 25.6753C24.9814 25.7169 24.7482 25.6961 24.4817 25.6129C24.2149 25.5293 23.9988 25.4377 23.8323 25.3381L23.5823 25.1877C23.3323 25.0128 23.041 24.7464 22.7081 24.3886C22.3748 24.0305 22.0897 23.7079 21.8524 23.4206C21.6152 23.1333 21.3611 22.8924 21.0903 22.696C20.8194 22.5004 20.5844 22.4358 20.3847 22.5026C20.3599 22.5113 20.3263 22.5259 20.2847 22.5464C20.2427 22.5672 20.1722 22.627 20.0722 22.7274C19.9722 22.8274 19.8828 22.9504 19.8036 23.0957C19.7244 23.2417 19.6536 23.4582 19.5911 23.7455C19.5287 24.0324 19.5013 24.3554 19.5101 24.7135C19.5101 24.838 19.4951 24.9529 19.4663 25.057C19.4371 25.161 19.4057 25.238 19.3725 25.2877L19.3225 25.3501C19.1725 25.5089 18.952 25.6001 18.6607 25.625H17.2243C16.633 25.6585 16.0252 25.5899 15.401 25.4191C14.7768 25.2479 14.2289 25.0278 13.7588 24.7569C13.2879 24.4868 12.8594 24.212 12.4725 23.9331C12.0852 23.6538 11.7917 23.4147 11.592 23.2151L11.2799 22.915C11.1967 22.8322 11.0821 22.707 10.9364 22.5402C10.7908 22.3737 10.4933 21.9952 10.0436 21.4038C9.59389 20.8125 9.15258 20.1843 8.71966 19.5178C8.28675 18.8516 7.77681 17.973 7.18949 16.8823C6.60253 15.792 6.05938 14.6597 5.55966 13.4854C5.50965 13.3525 5.48447 13.2401 5.48447 13.1485C5.48447 13.0572 5.49688 12.9904 5.52206 12.9485L5.57207 12.8736C5.69691 12.7152 5.93417 12.636 6.28387 12.636L9.70595 12.6112C9.80597 12.628 9.90161 12.655 9.99323 12.6926C10.0848 12.7298 10.1516 12.7652 10.1933 12.7984L10.2557 12.836C10.3889 12.928 10.4886 13.0609 10.5554 13.2357C10.7218 13.6526 10.9134 14.0833 11.1299 14.5286C11.3464 14.974 11.5172 15.3134 11.642 15.5463L11.8417 15.9088C12.083 16.4081 12.3162 16.8414 12.5411 17.2075C12.7663 17.574 12.9678 17.8595 13.147 18.0631C13.3259 18.2672 13.4985 18.4278 13.6654 18.5439C13.8318 18.6607 13.9734 18.7191 14.0902 18.7191C14.2067 18.7191 14.3191 18.6983 14.4275 18.6567C14.4439 18.6483 14.4648 18.6275 14.4899 18.5943C14.5151 18.561 14.5648 18.4694 14.64 18.319C14.7148 18.1694 14.771 17.9737 14.8086 17.7321C14.8462 17.4912 14.8856 17.1539 14.9272 16.721C14.9689 16.2877 14.9689 15.7675 14.9272 15.1598C14.9104 14.8265 14.8728 14.5228 14.8148 14.2479C14.7564 13.9734 14.698 13.7818 14.64 13.6734L14.5648 13.5237C14.3567 13.2408 14.003 13.0616 13.5033 12.9864C13.3949 12.9704 13.4157 12.8703 13.5657 12.6871C13.7073 12.5287 13.8654 12.4042 14.0402 12.3122C14.4815 12.0961 15.4766 11.9961 17.0254 12.0122C17.708 12.0209 18.2701 12.0746 18.7114 12.1746C18.8779 12.2166 19.0173 12.2724 19.1297 12.3432C19.2422 12.4137 19.3276 12.5141 19.386 12.6426C19.444 12.7718 19.4878 12.905 19.517 13.0423C19.5462 13.1799 19.5608 13.3697 19.5608 13.6106C19.5608 13.8522 19.5568 14.0815 19.5484 14.2976C19.54 14.514 19.5298 14.8079 19.5174 15.178C19.505 15.5485 19.4984 15.8924 19.4984 16.2085C19.4984 16.3005 19.4944 16.4749 19.486 16.733C19.4776 16.9914 19.4751 17.1911 19.4798 17.3324C19.4838 17.474 19.4984 17.643 19.5232 17.8383C19.5484 18.0339 19.5962 18.1967 19.6671 18.3252C19.7375 18.4545 19.8313 18.5563 19.9481 18.6311C20.0146 18.6483 20.0854 18.6647 20.1606 18.6815C20.2354 18.6979 20.3434 18.6527 20.4851 18.5439C20.6263 18.4358 20.7848 18.292 20.9596 18.1132C21.1344 17.9347 21.3509 17.6558 21.609 17.2765C21.8667 16.8984 22.1499 16.4505 22.458 15.934C22.9577 15.0681 23.4031 14.1311 23.7944 13.1237C23.8276 13.0401 23.8692 12.9674 23.9192 12.905C23.9692 12.8422 24.0148 12.7984 24.0565 12.7736L24.1065 12.736C24.1229 12.7276 24.1437 12.7174 24.1689 12.705C24.1941 12.6929 24.2481 12.6802 24.3313 12.6674C24.4145 12.6553 24.4978 12.6531 24.5814 12.6615L28.1783 12.636C28.5028 12.5947 28.7693 12.605 28.9773 12.667C29.1854 12.7294 29.3146 12.7984 29.3646 12.8733L29.4398 12.9981C29.6311 13.5314 29.0069 14.7546 27.5665 16.6699C27.3665 16.9367 27.0956 17.2908 26.7547 17.7317C26.1053 18.5647 25.7308 19.11 25.6315 19.3688C25.4892 19.7094 25.5476 20.0467 25.8056 20.3792Z" fill="currentColor"/>
</svg>
