<svg width="111" height="40" viewBox="0 0 111 40" fill="none" xmlns="http://www.w3.org/2000/svg">
<path d="M69.825 27.6377V31.1044H55.8516V12.4375H69.4899V15.9042H60.0024V19.9576H68.3813V23.3177H60.0024V27.6377H69.825Z" fill="#1C1C2D"/>
<path d="M73.1482 12.4375H81.3467C83.306 12.4375 85.0334 12.8286 86.5287 13.6109C88.0412 14.3753 89.21 15.4598 90.035 16.8642C90.8771 18.2687 91.2982 19.9043 91.2982 21.771C91.2982 23.6377 90.8771 25.2732 90.035 26.6777C89.21 28.0822 88.0412 29.1755 86.5287 29.9578C85.0334 30.7222 83.306 31.1044 81.3467 31.1044H73.1482V12.4375ZM81.1404 27.5577C82.9451 27.5577 84.3803 27.0422 85.4459 26.011C86.5287 24.9621 87.0701 23.5488 87.0701 21.771C87.0701 19.9932 86.5287 18.5887 85.4459 17.5576C84.3803 16.5087 82.9451 15.9842 81.1404 15.9842H77.3248V27.5577H81.1404Z" fill="#1C1C2D"/>
<path d="M111 12.4375V31.1044H107.571L98.573 19.7709V31.1044H94.448V12.4375H97.9027L106.875 23.771V12.4375H111Z" fill="#1C1C2D"/>
<path fill-rule="evenodd" clip-rule="evenodd" d="M42.8627 8.52771C43.7743 8.52771 44.5112 9.28994 44.5112 10.2329V18.7589H41.2141V12.0797L22.066 20.3328C21.8633 20.4215 21.6473 20.4641 21.4313 20.4641C21.2154 20.4641 20.9994 20.4215 20.7966 20.3328L1.01387 11.8068C0.400601 11.5425 0 10.9201 0 10.2329C0 9.54572 0.400601 8.92332 1.01387 8.65902L20.7966 0.133006C21.2038 -0.0443352 21.6605 -0.0443352 22.066 0.133006L41.5438 8.52771H42.8627ZM5.93287 10.2262L21.4294 16.9054L36.9259 10.2262L21.4294 3.54688L5.93287 10.2262Z" fill="#1C1C2D"/>
<rect x="41.2158" y="22.168" width="3.29713" height="3.41041" fill="#1C1C2D"/>
<rect x="18.1367" y="8.52344" width="6.59426" height="3.41041" fill="#1C1C2D"/>
<path fill-rule="evenodd" clip-rule="evenodd" d="M21.4331 27.2878C21.6408 27.2878 21.8485 27.2486 22.0447 27.1667L38.5303 20.3459L37.3071 17.1793L21.4463 23.7427L2.28502 15.4844L1.01562 18.6322L20.7984 27.1582C21.0012 27.2452 21.2171 27.2878 21.4331 27.2878Z" fill="#1C1C2D"/>
<path fill-rule="evenodd" clip-rule="evenodd" d="M4.00179 33.7937L5.3602 34.7776C10.1658 38.2579 15.7989 39.9989 21.4321 39.9972C27.0652 39.9972 32.6983 38.2579 37.5039 34.7776L38.8623 33.7937C39.3041 33.4748 39.5663 32.953 39.5663 32.3971V23.8711H36.2691V31.5087L35.6147 31.9827C31.8427 34.7145 27.4938 36.2236 23.0806 36.5254V30.6919H19.7835V36.5271C15.3719 36.2253 11.023 34.7162 7.24946 31.9827L6.59498 31.5087V23.8711H3.29785V32.3971C3.29785 32.953 3.55997 33.4748 4.00179 33.7937Z" fill="#1C1C2D"/>
</svg>
