<svg width="111" height="40" viewBox="0 0 111 40" fill="none" xmlns="http://www.w3.org/2000/svg">
<rect x="0.5" y="0.5" width="110" height="39" fill="white" stroke="black"/>
<path d="M36.3281 26.1602V28H27.7969V26.1602H36.3281ZM28.2422 10.9375V28H25.9805V10.9375H28.2422ZM51.2812 18.9297V20.0078C51.2812 21.2891 51.1211 22.4375 50.8008 23.4531C50.4805 24.4688 50.0195 25.332 49.418 26.043C48.8164 26.7539 48.0938 27.2969 47.25 27.6719C46.4141 28.0469 45.4766 28.2344 44.4375 28.2344C43.4297 28.2344 42.5039 28.0469 41.6602 27.6719C40.8242 27.2969 40.0977 26.7539 39.4805 26.043C38.8711 25.332 38.3984 24.4688 38.0625 23.4531C37.7266 22.4375 37.5586 21.2891 37.5586 20.0078V18.9297C37.5586 17.6484 37.7227 16.5039 38.0508 15.4961C38.3867 14.4805 38.8594 13.6172 39.4688 12.9062C40.0781 12.1875 40.8008 11.6406 41.6367 11.2656C42.4805 10.8906 43.4062 10.7031 44.4141 10.7031C45.4531 10.7031 46.3906 10.8906 47.2266 11.2656C48.0703 11.6406 48.793 12.1875 49.3945 12.9062C50.0039 13.6172 50.4688 14.4805 50.7891 15.4961C51.1172 16.5039 51.2812 17.6484 51.2812 18.9297ZM49.043 20.0078V18.9062C49.043 17.8906 48.9375 16.9922 48.7266 16.2109C48.5234 15.4297 48.2227 14.7734 47.8242 14.2422C47.4258 13.7109 46.9375 13.3086 46.3594 13.0352C45.7891 12.7617 45.1406 12.625 44.4141 12.625C43.7109 12.625 43.0742 12.7617 42.5039 13.0352C41.9414 13.3086 41.457 13.7109 41.0508 14.2422C40.6523 14.7734 40.3438 15.4297 40.125 16.2109C39.9062 16.9922 39.7969 17.8906 39.7969 18.9062V20.0078C39.7969 21.0312 39.9062 21.9375 40.125 22.7266C40.3438 23.5078 40.6562 24.168 41.0625 24.707C41.4766 25.2383 41.9648 25.6406 42.5273 25.9141C43.0977 26.1875 43.7344 26.3242 44.4375 26.3242C45.1719 26.3242 45.8242 26.1875 46.3945 25.9141C46.9648 25.6406 47.4453 25.2383 47.8359 24.707C48.2344 24.168 48.5352 23.5078 48.7383 22.7266C48.9414 21.9375 49.043 21.0312 49.043 20.0078ZM67.2773 19.5039V25.75C67.0664 26.0625 66.7305 26.4141 66.2695 26.8047C65.8086 27.1875 65.1719 27.5234 64.3594 27.8125C63.5547 28.0938 62.5156 28.2344 61.2422 28.2344C60.2031 28.2344 59.2461 28.0547 58.3711 27.6953C57.5039 27.3281 56.75 26.7969 56.1094 26.1016C55.4766 25.3984 54.9844 24.5469 54.6328 23.5469C54.2891 22.5391 54.1172 21.3984 54.1172 20.125V18.8008C54.1172 17.5273 54.2656 16.3906 54.5625 15.3906C54.8672 14.3906 55.3125 13.543 55.8984 12.8477C56.4844 12.1445 57.2031 11.6133 58.0547 11.2539C58.9062 10.8867 59.8828 10.7031 60.9844 10.7031C62.2891 10.7031 63.3789 10.9297 64.2539 11.3828C65.1367 11.8281 65.8242 12.4453 66.3164 13.2344C66.8164 14.0234 67.1367 14.9219 67.2773 15.9297H65.0156C64.9141 15.3125 64.7109 14.75 64.4062 14.2422C64.1094 13.7344 63.6836 13.3281 63.1289 13.0234C62.5742 12.7109 61.8594 12.5547 60.9844 12.5547C60.1953 12.5547 59.5117 12.6992 58.9336 12.9883C58.3555 13.2773 57.8789 13.6914 57.5039 14.2305C57.1289 14.7695 56.8477 15.4219 56.6602 16.1875C56.4805 16.9531 56.3906 17.8164 56.3906 18.7773V20.125C56.3906 21.1094 56.5039 21.9883 56.7305 22.7617C56.9648 23.5352 57.2969 24.1953 57.7266 24.7422C58.1562 25.2812 58.668 25.6914 59.2617 25.9727C59.8633 26.2539 60.5273 26.3945 61.2539 26.3945C62.0586 26.3945 62.7109 26.3281 63.2109 26.1953C63.7109 26.0547 64.1016 25.8906 64.3828 25.7031C64.6641 25.5078 64.8789 25.3242 65.0273 25.1523V21.332H61.0781V19.5039H67.2773ZM84.1641 18.9297V20.0078C84.1641 21.2891 84.0039 22.4375 83.6836 23.4531C83.3633 24.4688 82.9023 25.332 82.3008 26.043C81.6992 26.7539 80.9766 27.2969 80.1328 27.6719C79.2969 28.0469 78.3594 28.2344 77.3203 28.2344C76.3125 28.2344 75.3867 28.0469 74.543 27.6719C73.707 27.2969 72.9805 26.7539 72.3633 26.043C71.7539 25.332 71.2812 24.4688 70.9453 23.4531C70.6094 22.4375 70.4414 21.2891 70.4414 20.0078V18.9297C70.4414 17.6484 70.6055 16.5039 70.9336 15.4961C71.2695 14.4805 71.7422 13.6172 72.3516 12.9062C72.9609 12.1875 73.6836 11.6406 74.5195 11.2656C75.3633 10.8906 76.2891 10.7031 77.2969 10.7031C78.3359 10.7031 79.2734 10.8906 80.1094 11.2656C80.9531 11.6406 81.6758 12.1875 82.2773 12.9062C82.8867 13.6172 83.3516 14.4805 83.6719 15.4961C84 16.5039 84.1641 17.6484 84.1641 18.9297ZM81.9258 20.0078V18.9062C81.9258 17.8906 81.8203 16.9922 81.6094 16.2109C81.4062 15.4297 81.1055 14.7734 80.707 14.2422C80.3086 13.7109 79.8203 13.3086 79.2422 13.0352C78.6719 12.7617 78.0234 12.625 77.2969 12.625C76.5938 12.625 75.957 12.7617 75.3867 13.0352C74.8242 13.3086 74.3398 13.7109 73.9336 14.2422C73.5352 14.7734 73.2266 15.4297 73.0078 16.2109C72.7891 16.9922 72.6797 17.8906 72.6797 18.9062V20.0078C72.6797 21.0312 72.7891 21.9375 73.0078 22.7266C73.2266 23.5078 73.5391 24.168 73.9453 24.707C74.3594 25.2383 74.8477 25.6406 75.4102 25.9141C75.9805 26.1875 76.6172 26.3242 77.3203 26.3242C78.0547 26.3242 78.707 26.1875 79.2773 25.9141C79.8477 25.6406 80.3281 25.2383 80.7188 24.707C81.1172 24.168 81.418 23.5078 81.6211 22.7266C81.8242 21.9375 81.9258 21.0312 81.9258 20.0078Z" fill="#1E1E1E"/>
<path d="M36.3281 26.1602H36.8281V25.6602H36.3281V26.1602ZM36.3281 28V28.5H36.8281V28H36.3281ZM27.7969 28H27.2969V28.5H27.7969V28ZM27.7969 26.1602V25.6602H27.2969V26.1602H27.7969ZM28.2422 10.9375H28.7422V10.4375H28.2422V10.9375ZM28.2422 28V28.5H28.7422V28H28.2422ZM25.9805 28H25.4805V28.5H25.9805V28ZM25.9805 10.9375V10.4375H25.4805V10.9375H25.9805ZM35.8281 26.1602V28H36.8281V26.1602H35.8281ZM36.3281 27.5H27.7969V28.5H36.3281V27.5ZM28.2969 28V26.1602H27.2969V28H28.2969ZM27.7969 26.6602H36.3281V25.6602H27.7969V26.6602ZM27.7422 10.9375V28H28.7422V10.9375H27.7422ZM28.2422 27.5H25.9805V28.5H28.2422V27.5ZM26.4805 28V10.9375H25.4805V28H26.4805ZM25.9805 11.4375H28.2422V10.4375H25.9805V11.4375ZM47.25 27.6719L47.0469 27.215L47.0453 27.2157L47.25 27.6719ZM41.6602 27.6719L41.4555 28.1281L41.4571 28.1288L41.6602 27.6719ZM39.4805 26.043L39.1008 26.3684L39.1029 26.3707L39.4805 26.043ZM38.0508 15.4961L37.5761 15.3391L37.5753 15.3413L38.0508 15.4961ZM39.4688 12.9062L39.8484 13.2317L39.8501 13.2296L39.4688 12.9062ZM41.6367 11.2656L41.4336 10.8087L41.4321 10.8094L41.6367 11.2656ZM47.2266 11.2656L47.0219 11.7218L47.0235 11.7225L47.2266 11.2656ZM49.3945 12.9062L49.0111 13.2272L49.0149 13.2316L49.3945 12.9062ZM50.7891 15.4961L50.3122 15.6465L50.3136 15.6509L50.7891 15.4961ZM48.7266 16.2109L48.2426 16.3368L48.2438 16.3413L48.7266 16.2109ZM46.3594 13.0352L46.1432 13.486L46.1456 13.4871L46.3594 13.0352ZM42.5039 13.0352L42.2877 12.5843L42.2853 12.5855L42.5039 13.0352ZM41.0508 14.2422L40.6536 13.9384L40.6508 13.9422L41.0508 14.2422ZM40.125 22.7266L39.6432 22.8601L39.6435 22.8614L40.125 22.7266ZM41.0625 24.707L40.6631 25.008L40.6681 25.0144L41.0625 24.707ZM42.5273 25.9141L42.3087 26.3638L42.3112 26.3649L42.5273 25.9141ZM47.8359 24.707L47.4338 24.4098L47.4331 24.4108L47.8359 24.707ZM48.7383 22.7266L49.2222 22.8524L49.2225 22.8512L48.7383 22.7266ZM50.7812 18.9297V20.0078H51.7812V18.9297H50.7812ZM50.7812 20.0078C50.7812 21.2481 50.6262 22.3445 50.3239 23.3027L51.2776 23.6035C51.616 22.5305 51.7812 21.3301 51.7812 20.0078H50.7812ZM50.3239 23.3027C50.0207 24.2641 49.5893 25.0665 49.0363 25.72L49.7997 26.3659C50.4498 25.5976 50.9402 24.6734 51.2776 23.6035L50.3239 23.3027ZM49.0363 25.72C48.483 26.3739 47.8212 26.8709 47.0469 27.215L47.4531 28.1288C48.3663 27.7229 49.1498 27.1339 49.7997 26.3659L49.0363 25.72ZM47.0453 27.2157C46.2819 27.5582 45.4155 27.7344 44.4375 27.7344V28.7344C45.5376 28.7344 46.5462 28.5356 47.4547 28.1281L47.0453 27.2157ZM44.4375 27.7344C43.4932 27.7344 42.6374 27.559 41.8632 27.215L41.4571 28.1288C42.3704 28.5347 43.3662 28.7344 44.4375 28.7344V27.7344ZM41.8648 27.2157C41.097 26.8712 40.429 26.3728 39.858 25.7152L39.1029 26.3707C39.7664 27.135 40.5514 27.7225 41.4555 28.1281L41.8648 27.2157ZM39.8601 25.7176C39.2987 25.0626 38.8556 24.2587 38.5372 23.2961L37.5878 23.6101C37.9413 24.6788 38.4435 25.6015 39.1008 26.3684L39.8601 25.7176ZM38.5372 23.2961C38.221 22.34 38.0586 21.2459 38.0586 20.0078H37.0586C37.0586 21.3322 37.2322 22.535 37.5878 23.6101L38.5372 23.2961ZM38.0586 20.0078V18.9297H37.0586V20.0078H38.0586ZM38.0586 18.9297C38.0586 17.6904 38.2174 16.5995 38.5262 15.6509L37.5753 15.3413C37.228 16.4083 37.0586 17.6065 37.0586 18.9297H38.0586ZM38.5255 15.6531C38.8439 14.6905 39.287 13.8866 39.8484 13.2316L39.0891 12.5809C38.4318 13.3477 37.9296 14.2704 37.5761 15.3391L38.5255 15.6531ZM39.8501 13.2296C40.4127 12.5661 41.0755 12.0654 41.8414 11.7218L41.4321 10.8094C40.5261 11.2159 39.7436 11.8089 39.0874 12.5829L39.8501 13.2296ZM41.8398 11.7225C42.614 11.3785 43.4697 11.2031 44.4141 11.2031V10.2031C43.3428 10.2031 42.347 10.4028 41.4336 10.8087L41.8398 11.7225ZM44.4141 11.2031C45.392 11.2031 46.2584 11.3793 47.0219 11.7218L47.4312 10.8094C46.5228 10.4019 45.5142 10.2031 44.4141 10.2031V11.2031ZM47.0235 11.7225C47.7965 12.0661 48.4577 12.566 49.0111 13.2272L49.778 12.5853C49.1282 11.809 48.3442 11.2152 47.4296 10.8087L47.0235 11.7225ZM49.0149 13.2316C49.5748 13.8848 50.0094 14.6864 50.3122 15.6465L51.2659 15.3457C50.9281 14.2746 50.433 13.3495 49.7742 12.5809L49.0149 13.2316ZM50.3136 15.6509C50.6225 16.5995 50.7812 17.6904 50.7812 18.9297H51.7812C51.7812 17.6065 51.6119 16.4083 51.2645 15.3413L50.3136 15.6509ZM49.543 20.0078V18.9062H48.543V20.0078H49.543ZM49.543 18.9062C49.543 17.8573 49.4342 16.9135 49.2093 16.0806L48.2438 16.3413C48.4408 17.0708 48.543 17.924 48.543 18.9062H49.543ZM49.2105 16.0851C48.9944 15.2541 48.6691 14.5354 48.2242 13.9422L47.4242 14.5422C47.7762 15.0115 48.0525 15.6053 48.2427 16.3368L49.2105 16.0851ZM48.2242 13.9422C47.7789 13.3485 47.2277 12.8927 46.5732 12.5832L46.1456 13.4871C46.6473 13.7245 47.0726 14.0734 47.4242 14.5422L48.2242 13.9422ZM46.5755 12.5843C45.9284 12.274 45.2043 12.125 44.4141 12.125V13.125C45.0769 13.125 45.6497 13.2494 46.1432 13.486L46.5755 12.5843ZM44.4141 12.125C43.6446 12.125 42.9327 12.2751 42.2877 12.5843L42.7201 13.486C43.2157 13.2484 43.7773 13.125 44.4141 13.125V12.125ZM42.2853 12.5855C41.6479 12.8953 41.1038 13.3497 40.6536 13.9385L41.448 14.5459C41.8102 14.0722 42.2349 13.7219 42.7225 13.4848L42.2853 12.5855ZM40.6508 13.9422C40.208 14.5326 39.8754 15.2481 39.6435 16.0761L40.6065 16.3458C40.8121 15.6113 41.0967 15.0143 41.4508 14.5422L40.6508 13.9422ZM39.6435 16.0761C39.4098 16.9107 39.2969 17.856 39.2969 18.9062H40.2969C40.2969 17.9253 40.4027 17.0737 40.6065 16.3458L39.6435 16.0761ZM39.2969 18.9062V20.0078H40.2969V18.9062H39.2969ZM39.2969 20.0078C39.2969 21.0657 39.4098 22.0183 39.6432 22.8601L40.6068 22.593C40.4027 21.8567 40.2969 20.9968 40.2969 20.0078H39.2969ZM39.6435 22.8614C39.8758 23.6908 40.2127 24.4102 40.6632 25.008L41.4618 24.4061C41.0998 23.9257 40.8117 23.3248 40.6065 22.5917L39.6435 22.8614ZM40.6681 25.0144C41.1255 25.6012 41.6724 26.0544 42.3087 26.3637L42.7459 25.4644C42.2573 25.2269 41.8277 24.8754 41.4569 24.3997L40.6681 25.0144ZM42.3112 26.3649C42.9562 26.6742 43.668 26.8242 44.4375 26.8242V25.8242C43.8008 25.8242 43.2391 25.7008 42.7435 25.4632L42.3112 26.3649ZM44.4375 26.8242C45.2347 26.8242 45.9629 26.6755 46.6107 26.3649L46.1784 25.4632C45.6856 25.6995 45.1091 25.8242 44.4375 25.8242V26.8242ZM46.6107 26.3649C47.2582 26.0545 47.8017 25.5976 48.2388 25.0032L47.4331 24.4108C47.0889 24.8789 46.6715 25.2268 46.1784 25.4632L46.6107 26.3649ZM48.238 25.0042C48.6813 24.4045 49.0062 23.6831 49.2222 22.8524L48.2544 22.6007C48.0641 23.3325 47.7874 23.9315 47.4338 24.4098L48.238 25.0042ZM49.2225 22.8512C49.4384 22.0126 49.543 21.0631 49.543 20.0078H48.543C48.543 20.9994 48.4444 21.8624 48.2541 22.6019L49.2225 22.8512ZM67.2773 19.5039H67.7773V19.0039H67.2773V19.5039ZM67.2773 25.75L67.6918 26.0297L67.7773 25.903V25.75H67.2773ZM66.2695 26.8047L66.589 27.1894L66.5928 27.1861L66.2695 26.8047ZM64.3594 27.8125L64.5243 28.2845L64.527 28.2836L64.3594 27.8125ZM58.3711 27.6953L58.1761 28.1558L58.1811 28.1578L58.3711 27.6953ZM56.1094 26.1016L55.7377 26.4361L55.7417 26.4404L56.1094 26.1016ZM54.6328 23.5469L54.1596 23.7083L54.1611 23.7127L54.6328 23.5469ZM54.5625 15.3906L54.0842 15.2449L54.0832 15.2483L54.5625 15.3906ZM55.8984 12.8477L56.2808 13.1699L56.2825 13.1677L55.8984 12.8477ZM58.0547 11.2539L58.2491 11.7146L58.2527 11.713L58.0547 11.2539ZM64.2539 11.3828L64.024 11.8268L64.0287 11.8292L64.2539 11.3828ZM66.3164 13.2344L65.8922 13.499L65.8941 13.502L66.3164 13.2344ZM67.2773 15.9297V16.4297H67.852L67.7725 15.8606L67.2773 15.9297ZM65.0156 15.9297L64.5223 16.0109L64.5912 16.4297H65.0156V15.9297ZM64.4062 14.2422L63.9746 14.4946L63.9775 14.4994L64.4062 14.2422ZM63.1289 13.0234L62.8835 13.4591L62.8882 13.4617L63.1289 13.0234ZM56.6602 16.1875L56.1745 16.0686L56.1734 16.0733L56.6602 16.1875ZM56.7305 22.7617L56.2506 22.9023L56.252 22.9067L56.7305 22.7617ZM57.7266 24.7422L57.3334 25.0511L57.3356 25.0538L57.7266 24.7422ZM59.2617 25.9727L59.0477 26.4245L59.05 26.4256L59.2617 25.9727ZM63.2109 26.1953L63.3393 26.6786L63.3463 26.6766L63.2109 26.1953ZM64.3828 25.7031L64.6602 26.1192L64.668 26.1138L64.3828 25.7031ZM65.0273 25.1523L65.4058 25.4792L65.5273 25.3384V25.1523H65.0273ZM65.0273 21.332H65.5273V20.832H65.0273V21.332ZM61.0781 21.332H60.5781V21.832H61.0781V21.332ZM61.0781 19.5039V19.0039H60.5781V19.5039H61.0781ZM66.7773 19.5039V25.75H67.7773V19.5039H66.7773ZM66.8629 25.4703C66.6882 25.7291 66.3906 26.0467 65.9463 26.4232L66.5928 27.1861C67.0704 26.7814 67.4446 26.3959 67.6918 26.0297L66.8629 25.4703ZM65.9501 26.42C65.5494 26.7528 64.9712 27.0641 64.1918 27.3414L64.527 28.2836C65.3726 27.9827 66.0678 27.6222 66.589 27.1893L65.9501 26.42ZM64.1944 27.3405C63.4621 27.5965 62.4844 27.7344 61.2422 27.7344V28.7344C62.5468 28.7344 63.6473 28.591 64.5243 28.2845L64.1944 27.3405ZM61.2422 27.7344C60.2618 27.7344 59.3701 27.5651 58.5611 27.2328L58.1811 28.1578C59.1221 28.5443 60.1444 28.7344 61.2422 28.7344V27.7344ZM58.566 27.2349C57.7647 26.8956 57.0696 26.4059 56.4771 25.7628L55.7417 26.4404C56.4304 27.1878 57.2431 27.7607 58.1761 28.1557L58.566 27.2349ZM56.481 25.7671C55.8974 25.1186 55.4368 24.3263 55.1045 23.381L54.1611 23.7127C54.5319 24.7675 55.0557 25.6783 55.7377 26.436L56.481 25.7671ZM55.106 23.3855C54.7831 22.4387 54.6172 21.354 54.6172 20.125H53.6172C53.6172 21.4429 53.795 22.6395 54.1596 23.7083L55.106 23.3855ZM54.6172 20.125V18.8008H53.6172V20.125H54.6172ZM54.6172 18.8008C54.6172 17.5653 54.7613 16.4779 55.0418 15.5329L54.0832 15.2483C53.77 16.3034 53.6172 17.4894 53.6172 18.8008H54.6172ZM55.0408 15.5364C55.3287 14.5914 55.7445 13.8063 56.2808 13.1699L55.5161 12.5255C54.8805 13.2797 54.4057 14.1898 54.0842 15.2449L55.0408 15.5364ZM56.2825 13.1677C56.8169 12.5266 57.4703 12.0432 58.2491 11.7146L57.8603 10.7932C56.9359 11.1833 56.1519 11.7625 55.5143 12.5276L56.2825 13.1677ZM58.2527 11.713C59.0311 11.3774 59.9383 11.2031 60.9844 11.2031V10.2031C59.8273 10.2031 58.7814 10.3961 57.8567 10.7948L58.2527 11.713ZM60.9844 11.2031C62.234 11.2031 63.2393 11.4204 64.024 11.8268L64.4838 10.9388C63.5185 10.4389 62.3442 10.2031 60.9844 10.2031V11.2031ZM64.0287 11.8292C64.8352 12.236 65.4515 12.7926 65.8922 13.499L66.7406 12.9698C66.1969 12.098 65.4383 11.4202 64.4791 10.9364L64.0287 11.8292ZM65.8941 13.502C66.3526 14.2256 66.6505 15.0552 66.7821 15.9988L67.7725 15.8606C67.623 14.7885 67.2802 13.8213 66.7388 12.9667L65.8941 13.502ZM67.2773 15.4297H65.0156V16.4297H67.2773V15.4297ZM65.509 15.8485C65.3978 15.1726 65.1739 14.5498 64.835 13.9849L63.9775 14.4994C64.2479 14.9502 64.4304 15.4524 64.5223 16.0109L65.509 15.8485ZM64.8379 13.9898C64.4919 13.398 63.9974 12.93 63.3696 12.5852L62.8882 13.4617C63.3698 13.7262 63.7268 14.0707 63.9746 14.4945L64.8379 13.9898ZM63.3743 12.5878C62.7219 12.2202 61.9146 12.0547 60.9844 12.0547V13.0547C61.8041 13.0547 62.4266 13.2016 62.8835 13.4591L63.3743 12.5878ZM60.9844 12.0547C60.1346 12.0547 59.3712 12.2105 58.71 12.5411L59.1572 13.4355C59.6522 13.188 60.2561 13.0547 60.9844 13.0547V12.0547ZM58.71 12.5411C58.0558 12.8682 57.5154 13.3383 57.0935 13.9449L57.9144 14.516C58.2424 14.0445 58.6551 13.6865 59.1572 13.4355L58.71 12.5411ZM57.0935 13.9449C56.6771 14.5434 56.3738 15.2549 56.1745 16.0686L57.1458 16.3064C57.3215 15.5888 57.5807 14.9956 57.9144 14.516L57.0935 13.9449ZM56.1734 16.0733C55.9832 16.8835 55.8906 17.7861 55.8906 18.7773H56.8906C56.8906 17.8467 56.9777 17.0227 57.1469 16.3017L56.1734 16.0733ZM55.8906 18.7773V20.125H56.8906V18.7773H55.8906ZM55.8906 20.125C55.8906 21.1468 56.0081 22.0744 56.2506 22.9023L57.2103 22.6212C56.9997 21.9022 56.8906 21.0719 56.8906 20.125H55.8906ZM56.252 22.9067C56.5015 23.7301 56.8596 24.4481 57.3334 25.0511L58.1197 24.4333C57.7341 23.9425 57.4282 23.3402 57.209 22.6167L56.252 22.9067ZM57.3356 25.0538C57.8104 25.6495 58.3816 26.109 59.0477 26.4245L59.4758 25.5208C58.9543 25.2738 58.5021 24.913 58.1175 24.4305L57.3356 25.0538ZM59.05 26.4256C59.7239 26.7407 60.4611 26.8945 61.2539 26.8945V25.8945C60.5936 25.8945 60.0027 25.7671 59.4735 25.5197L59.05 26.4256ZM61.2539 26.8945C62.0808 26.8945 62.781 26.8269 63.3393 26.6786L63.0826 25.7121C62.6409 25.8294 62.0364 25.8945 61.2539 25.8945V26.8945ZM63.3463 26.6766C63.8727 26.5286 64.3185 26.3469 64.6602 26.1192L64.1055 25.2871C63.8846 25.4343 63.5491 25.5808 63.0756 25.714L63.3463 26.6766ZM64.668 26.1138C64.9682 25.9054 65.2198 25.6945 65.4058 25.4792L64.6489 24.8255C64.538 24.954 64.3599 25.1103 64.0976 25.2924L64.668 26.1138ZM65.5273 25.1523V21.332H64.5273V25.1523H65.5273ZM65.0273 20.832H61.0781V21.832H65.0273V20.832ZM61.5781 21.332V19.5039H60.5781V21.332H61.5781ZM61.0781 20.0039H67.2773V19.0039H61.0781V20.0039ZM80.1328 27.6719L79.9297 27.215L79.9282 27.2157L80.1328 27.6719ZM74.543 27.6719L74.3383 28.1281L74.3399 28.1288L74.543 27.6719ZM72.3633 26.043L71.9836 26.3684L71.9857 26.3707L72.3633 26.043ZM70.9336 15.4961L70.4589 15.3391L70.4582 15.3413L70.9336 15.4961ZM72.3516 12.9062L72.7312 13.2317L72.7329 13.2296L72.3516 12.9062ZM74.5195 11.2656L74.3165 10.8087L74.3149 10.8094L74.5195 11.2656ZM80.1094 11.2656L79.9047 11.7218L79.9063 11.7225L80.1094 11.2656ZM82.2773 12.9062L81.8939 13.2272L81.8977 13.2316L82.2773 12.9062ZM83.6719 15.4961L83.195 15.6465L83.1964 15.6509L83.6719 15.4961ZM81.6094 16.2109L81.1254 16.3368L81.1267 16.3413L81.6094 16.2109ZM79.2422 13.0352L79.026 13.486L79.0284 13.4871L79.2422 13.0352ZM75.3867 13.0352L75.1706 12.5843L75.1681 12.5855L75.3867 13.0352ZM73.9336 14.2422L73.5364 13.9384L73.5336 13.9422L73.9336 14.2422ZM73.0078 22.7266L72.526 22.8601L72.5263 22.8614L73.0078 22.7266ZM73.9453 24.707L73.546 25.008L73.5509 25.0144L73.9453 24.707ZM75.4102 25.9141L75.1916 26.3638L75.194 26.3649L75.4102 25.9141ZM80.7188 24.707L80.3167 24.4098L80.3159 24.4108L80.7188 24.707ZM81.6211 22.7266L82.105 22.8524L82.1053 22.8512L81.6211 22.7266ZM83.6641 18.9297V20.0078H84.6641V18.9297H83.6641ZM83.6641 20.0078C83.6641 21.2481 83.509 22.3445 83.2067 23.3027L84.1604 23.6035C84.4988 22.5305 84.6641 21.3301 84.6641 20.0078H83.6641ZM83.2067 23.3027C82.9035 24.2641 82.4721 25.0665 81.9191 25.72L82.6825 26.3659C83.3326 25.5976 83.823 24.6734 84.1604 23.6035L83.2067 23.3027ZM81.9191 25.72C81.3658 26.3739 80.704 26.8709 79.9297 27.215L80.3359 28.1288C81.2491 27.7229 82.0327 27.1339 82.6825 26.3659L81.9191 25.72ZM79.9282 27.2157C79.1647 27.5582 78.2983 27.7344 77.3203 27.7344V28.7344C78.4205 28.7344 79.4291 28.5356 80.3375 28.1281L79.9282 27.2157ZM77.3203 27.7344C76.376 27.7344 75.5202 27.559 74.746 27.215L74.3399 28.1288C75.2532 28.5347 76.249 28.7344 77.3203 28.7344V27.7344ZM74.7476 27.2157C73.9798 26.8712 73.3118 26.3728 72.7409 25.7152L71.9857 26.3707C72.6492 27.135 73.4342 27.7225 74.3383 28.1281L74.7476 27.2157ZM72.7429 25.7176C72.1815 25.0626 71.7384 24.2587 71.42 23.2961L70.4706 23.6101C70.8241 24.6788 71.3263 25.6015 71.9837 26.3684L72.7429 25.7176ZM71.42 23.2961C71.1038 22.34 70.9414 21.2459 70.9414 20.0078H69.9414C69.9414 21.3322 70.115 22.535 70.4706 23.6101L71.42 23.2961ZM70.9414 20.0078V18.9297H69.9414V20.0078H70.9414ZM70.9414 18.9297C70.9414 17.6904 71.1002 16.5995 71.409 15.6509L70.4582 15.3413C70.1108 16.4083 69.9414 17.6065 69.9414 18.9297H70.9414ZM71.4083 15.6531C71.7267 14.6905 72.1698 13.8866 72.7312 13.2316L71.9719 12.5809C71.3146 13.3477 70.8124 14.2704 70.4589 15.3391L71.4083 15.6531ZM72.7329 13.2296C73.2955 12.5661 73.9583 12.0654 74.7242 11.7218L74.3149 10.8094C73.4089 11.2159 72.6264 11.8089 71.9702 12.5829L72.7329 13.2296ZM74.7226 11.7225C75.4968 11.3785 76.3526 11.2031 77.2969 11.2031V10.2031C76.2256 10.2031 75.2298 10.4028 74.3165 10.8087L74.7226 11.7225ZM77.2969 11.2031C78.2749 11.2031 79.1413 11.3793 79.9047 11.7218L80.314 10.8094C79.4056 10.4019 78.397 10.2031 77.2969 10.2031V11.2031ZM79.9063 11.7225C80.6793 12.0661 81.3405 12.566 81.8939 13.2272L82.6608 12.5853C82.011 11.809 81.227 11.2152 80.3124 10.8087L79.9063 11.7225ZM81.8977 13.2316C82.4576 13.8848 82.8922 14.6864 83.195 15.6465L84.1487 15.3457C83.8109 14.2746 83.3158 13.3495 82.657 12.5809L81.8977 13.2316ZM83.1964 15.6509C83.5053 16.5995 83.6641 17.6904 83.6641 18.9297H84.6641C84.6641 17.6065 84.4947 16.4083 84.1473 15.3413L83.1964 15.6509ZM82.4258 20.0078V18.9062H81.4258V20.0078H82.4258ZM82.4258 18.9062C82.4258 17.8573 82.317 16.9135 82.0921 16.0806L81.1267 16.3413C81.3236 17.0708 81.4258 17.924 81.4258 18.9062H82.4258ZM82.0933 16.0851C81.8772 15.2541 81.5519 14.5354 81.107 13.9422L80.307 14.5422C80.659 15.0115 80.9353 15.6053 81.1255 16.3368L82.0933 16.0851ZM81.107 13.9422C80.6617 13.3485 80.1105 12.8927 79.456 12.5832L79.0284 13.4871C79.5302 13.7245 79.9554 14.0734 80.307 14.5422L81.107 13.9422ZM79.4584 12.5843C78.8112 12.274 78.0871 12.125 77.2969 12.125V13.125C77.9597 13.125 78.5325 13.2494 79.026 13.486L79.4584 12.5843ZM77.2969 12.125C76.5274 12.125 75.8156 12.2751 75.1706 12.5843L75.6029 13.486C76.0985 13.2484 76.6601 13.125 77.2969 13.125V12.125ZM75.1681 12.5855C74.5307 12.8953 73.9866 13.3497 73.5364 13.9385L74.3308 14.5459C74.693 14.0722 75.1177 13.7219 75.6053 13.4848L75.1681 12.5855ZM73.5336 13.9422C73.0908 14.5326 72.7582 15.2481 72.5263 16.0761L73.4893 16.3458C73.6949 15.6113 73.9795 15.0143 74.3336 14.5422L73.5336 13.9422ZM72.5263 16.0761C72.2927 16.9107 72.1797 17.856 72.1797 18.9062H73.1797C73.1797 17.9253 73.2855 17.0737 73.4893 16.3458L72.5263 16.0761ZM72.1797 18.9062V20.0078H73.1797V18.9062H72.1797ZM72.1797 20.0078C72.1797 21.0657 72.2926 22.0183 72.526 22.8601L73.4896 22.593C73.2855 21.8567 73.1797 20.9968 73.1797 20.0078H72.1797ZM72.5263 22.8614C72.7586 23.6908 73.0955 24.4102 73.546 25.008L74.3446 24.4061C73.9826 23.9257 73.6946 23.3248 73.4893 22.5917L72.5263 22.8614ZM73.5509 25.0144C74.0083 25.6012 74.5552 26.0544 75.1916 26.3637L75.6288 25.4644C75.1401 25.2269 74.7105 24.8754 74.3397 24.3997L73.5509 25.0144ZM75.194 26.3649C75.839 26.6742 76.5508 26.8242 77.3203 26.8242V25.8242C76.6836 25.8242 76.1219 25.7008 75.6263 25.4632L75.194 26.3649ZM77.3203 26.8242C78.1175 26.8242 78.8457 26.6755 79.4935 26.3649L79.0612 25.4632C78.5684 25.6995 77.9919 25.8242 77.3203 25.8242V26.8242ZM79.4935 26.3649C80.141 26.0545 80.6845 25.5976 81.1216 25.0032L80.3159 24.4108C79.9717 24.8789 79.5543 25.2268 79.0612 25.4632L79.4935 26.3649ZM81.1208 25.0042C81.5641 24.4045 81.889 23.6831 82.105 22.8524L81.1372 22.6007C80.9469 23.3325 80.6702 23.9315 80.3167 24.4098L81.1208 25.0042ZM82.1053 22.8512C82.3212 22.0126 82.4258 21.0631 82.4258 20.0078H81.4258C81.4258 20.9994 81.3273 21.8624 81.1369 22.6019L82.1053 22.8512Z" fill="black"/>
</svg>
